<svg id="Layer_1" data-name="Layer 1" xmlns="http://www.w3.org/2000/svg" xmlns:xlink="http://www.w3.org/1999/xlink" viewBox="0 0 205 22.77"><defs><style>.cls-1{fill:url(#linear-gradient);}.cls-2{fill:url(#linear-gradient-2);}.cls-3{fill:url(#linear-gradient-3);}.cls-4{fill:#fff;}</style><linearGradient id="linear-gradient" x1="11.37" y1="18.29" x2="22.77" y2="18.29" gradientUnits="userSpaceOnUse"><stop offset="0" stop-color="#ec67ff"/><stop offset="1" stop-color="#a277ff"/></linearGradient><linearGradient id="linear-gradient-2" x1="0" y1="33.71" x2="11.4" y2="33.71" xlink:href="#linear-gradient"/><linearGradient id="linear-gradient-3" x1="0.01" y1="26" x2="22.78" y2="26" xlink:href="#linear-gradient"/></defs><path class="cls-1" d="M22.77,18.24a3.71,3.71,0,0,0-1.11-2.58,3.65,3.65,0,0,0-2.61-1.05l-7.68.09c2.4,2.32,5.91,5.88,7.25,7.26h.52A3.67,3.67,0,0,0,22.77,18.24Z" transform="translate(0 -14.61)"/><path class="cls-2" d="M11.4,37.27C9,35,5.47,31.4,4.12,30H3.61a3.67,3.67,0,0,0,.12,7.34Z" transform="translate(0 -14.61)"/><path class="cls-3" d="M16.51,36.31,1.08,20.88a3.68,3.68,0,0,1,0-5.19h0a3.68,3.68,0,0,1,5.19,0L21.7,31.12a3.66,3.66,0,0,1,0,5.19h0A3.68,3.68,0,0,1,16.51,36.31Z" transform="translate(0 -14.61)"/><path class="cls-4" d="M24.64,26a11.3,11.3,0,1,1,11.3,11.3A11.2,11.2,0,0,1,24.64,26Zm17.64,0a6.34,6.34,0,1,0-12.67,0,6.34,6.34,0,1,0,12.67,0Z" transform="translate(0 -14.61)"/><path class="cls-4" d="M49.73,29.85V15.13h5V29.42c0,1.64.78,3,3.42,3s3.41-1.4,3.41-3V15.13h5V29.85c0,4.66-3.6,7.45-8.38,7.45S49.73,34.51,49.73,29.85Z" transform="translate(0 -14.61)"/><path class="cls-4" d="M87.14,15.13V36.87H83.41L75,25.07v11.8h-5V15.13h3.73l8.38,11.8V15.13Z" transform="translate(0 -14.61)"/><path class="cls-4" d="M110.11,26A10.52,10.52,0,0,1,99.56,36.87h-8.7V15.13h8.7A10.52,10.52,0,0,1,110.11,26Zm-4.78,0c0-3.73-2.36-6.09-5.77-6.09H95.83V32.09h3.73C103,32.09,105.33,29.73,105.33,26Z" transform="translate(0 -14.61)"/><path class="cls-4" d="M125.77,36.87l-6.27-9.69-6.27,9.69H111.3l7.24-11.18-6.83-10.56h1.89l5.9,9.1,5.87-9.1h1.89l-6.83,10.56,7.23,11.18Z" transform="translate(0 -14.61)"/><path class="cls-4" d="M144.63,21.87a6.57,6.57,0,0,1-6.77,6.71h-5.74v8.29h-1.65V15.13h7.39A6.57,6.57,0,0,1,144.63,21.87Zm-1.65,0a5,5,0,0,0-5.12-5.18h-5.74V27h5.74A5,5,0,0,0,143,21.87Z" transform="translate(0 -14.61)"/><path class="cls-4" d="M159.49,31.34h-10.9l-2.11,5.53h-1.74l8.45-21.74h1.74l8.41,21.74H161.6Zm-.59-1.55-4.84-12.64-4.85,12.64Z" transform="translate(0 -14.61)"/><path class="cls-4" d="M182.44,15.13V36.87H181L168.15,18.18V36.87h-1.64V15.13h1.43l12.85,18.69V15.13Z" transform="translate(0 -14.61)"/><path class="cls-4" d="M205,26c0,6-4.25,10.87-10.25,10.87h-8.16V15.13h8.16C200.75,15.13,205,20,205,26Zm-1.61,0c0-5.15-3.51-9.31-8.64-9.31h-6.52V35.31h6.52C199.88,35.31,203.39,31.15,203.39,26Z" transform="translate(0 -14.61)"/></svg>