<svg id="Layer_1" data-name="Layer 1" xmlns="http://www.w3.org/2000/svg" viewBox="0 0 24.01 24"><defs><style>.cls-1{fill:#fff;}</style></defs><path class="cls-1" d="M24,3.82A3.91,3.91,0,0,0,22.82,1.1,3.84,3.84,0,0,0,20.08,0L12,.09c2.52,2.44,6.23,6.2,7.64,7.65h.54A3.87,3.87,0,0,0,24,3.82Z" transform="translate(0)"/><path class="cls-1" d="M12,23.88c-2.53-2.44-6.25-6.19-7.67-7.62H3.81A3.87,3.87,0,1,0,3.92,24Z" transform="translate(0)"/><path class="cls-1" d="M17.4,22.87,1.14,6.6a3.87,3.87,0,0,1,0-5.47h0a3.87,3.87,0,0,1,5.47,0L22.87,17.4a3.87,3.87,0,0,1,0,5.47h0A3.87,3.87,0,0,1,17.4,22.87Z" transform="translate(0)"/></svg>