<svg id="Layer_1" data-name="Layer 1" xmlns="http://www.w3.org/2000/svg" xmlns:xlink="http://www.w3.org/1999/xlink" viewBox="0 0 24.01 24"><defs><style>.cls-1{fill:url(#linear-gradient);}.cls-2{fill:url(#linear-gradient-2);}.cls-3{fill:url(#linear-gradient-3);}</style><linearGradient id="linear-gradient" x1="11.98" y1="3.87" x2="23.99" y2="3.87" gradientUnits="userSpaceOnUse"><stop offset="0" stop-color="#ec67ff"/><stop offset="1" stop-color="#a277ff"/></linearGradient><linearGradient id="linear-gradient-2" x1="0" y1="20.13" x2="12.01" y2="20.13" xlink:href="#linear-gradient"/><linearGradient id="linear-gradient-3" x1="0" y1="12" x2="24" y2="12" xlink:href="#linear-gradient"/></defs><path class="cls-1" d="M24,3.82A3.91,3.91,0,0,0,22.82,1.1,3.84,3.84,0,0,0,20.08,0L12,.09c2.52,2.44,6.23,6.2,7.64,7.65h.54A3.87,3.87,0,0,0,24,3.82Z" transform="translate(0)"/><path class="cls-2" d="M12,23.88c-2.53-2.44-6.25-6.19-7.67-7.62H3.81A3.87,3.87,0,1,0,3.92,24Z" transform="translate(0)"/><path class="cls-3" d="M17.4,22.87,1.14,6.6a3.87,3.87,0,0,1,0-5.47h0a3.87,3.87,0,0,1,5.47,0L22.87,17.4a3.87,3.87,0,0,1,0,5.47h0A3.87,3.87,0,0,1,17.4,22.87Z" transform="translate(0)"/></svg>